:version 1.10
:name ASF
:units
  mass 1
  length 1
  angle deg
:documentation
  ASF file generated by Kaydara
:root
  axis xyz
  order  tx ty tz rx ry rz
  position 0 0 0
  orientation 0 0 0
:bonedata
  begin
    id 1
    name RightUpLegDummy
    direction -1 2.30186e-007 8.31532e-007
    length 4.46685
    axis 0 0 0 xyz
  end
  begin
    id 2
    name RightUpLeg
    direction -2.30187e-007 -1 1.24343e-010
    length 16.4045
    axis -3.49089 -0.000906625 0.000286804 xyz
    dof rx ry rz
  end
  begin
    id 3
    name RightLeg
    direction -2.30181e-007 -1 -4.17157e-009
    length 17.5097
    axis 3.68512 0.0193738 -0.131023 xyz
    dof rx ry rz
  end
  begin
    id 4
    name RightFoot
    direction 8.31421e-007 -4.51202e-011 1
    length 6.49508
    axis 4.81691e-005 -0.120479 -0.188788 xyz
    dof rx ry rz
  end
  begin
    id 5
    name RightToes
    direction 0.00124746 -0.014064 0.9999
    length 3.85082
    axis 0.000481921 0.542163 -0.142578 xyz
    dof rx ry rz
  end
  begin
    id 6
    name SpineDummy
    direction 0.0717043 0.9409 -0.331007
    length 10.0032
    axis 0 0 0 xyz
  end
  begin
    id 7
    name Spine
    direction 2.30186e-007 1 4.58806e-011
    length 9.84055
    axis -0.001389 0.000121418 2.40972e-006 xyz
    dof rx ry rz
  end
  begin
    id 8
    name Spine1
    direction 0 0 0
    length 0
    axis -0.001389 0.000121451 1.30017e-006 xyz
    dof rx ry rz
  end
  begin
    id 9
    name HEadDummy
    direction -0.00347485 0.950688 -0.310128
    length 8.00997
    axis -0.001389 0.000121451 1.30017e-006 xyz
  end
  begin
    id 10
    name HEad
    direction -0.0222688 0.980941 0.193023
    length 5.12695
    axis -0.001389 0.000121451 1.30017e-006 xyz
    dof rx ry rz
  end
  begin
    id 11
    name LeftShoulder1Dummy
    direction 0.988871 0.146793 -0.0242004
    length 3.5792
    axis -0.001389 0.000121451 1.30017e-006 xyz
  end
  begin
    id 12
    name LeftShoulder1
    direction 0.993832 0.108932 0.020779
    length 4.16823
    axis -0.001389 0.000121451 1.30017e-006 xyz
    dof rx ry rz
  end
  begin
    id 13
    name LeftArm
    direction 1 3.44807e-006 -8.31404e-007
    length 9.91437
    axis -23.1894 0.134784 0.967509 xyz
    dof rx ry rz
  end
  begin
    id 14
    name LeftForeArm
    direction 1 3.44842e-006 -8.31581e-007
    length 9.08575
    axis -9.91835 -0.06569 -0.177793 xyz
    dof rx ry rz
  end
  begin
    id 15
    name LeftHand
    direction 0.992938 -0.0411636 0.11126
    length 5.32135
    axis -0.00960232 -0.00340091 0.185173 xyz
    dof rx ry rz
  end
  begin
    id 16
    name RightShoulderDummy
    direction -0.988871 0.146793 -0.0241962
    length 3.5792
    axis -0.001389 0.000121451 1.30017e-006 xyz
  end
  begin
    id 17
    name RightShoulder
    direction -0.993832 0.108933 0.0207785
    length 4.16823
    axis 0.215806 0.000203643 -0.0068026 xyz
    dof rx ry rz
  end
  begin
    id 18
    name RightArm
    direction -1 3.90912e-006 8.31284e-007
    length 9.91437
    axis -23.2009 -0.134239 -0.964101 xyz
    dof rx ry rz
  end
  begin
    id 19
    name RightForeArm
    direction -1 3.90882e-006 8.31502e-007
    length 9.08575
    axis -9.92322 0.0658061 0.178867 xyz
    dof rx ry rz
  end
  begin
    id 20
    name RightHand
    direction -0.992843 -0.0414603 0.112003
    length 5.28593
    axis -0.00960638 0.00330671 -0.185228 xyz
    dof rx ry rz
  end
  begin
    id 21
    name LeftUpLegDummy
    direction 1 -2.30186e-007 -8.31532e-007
    length 4.46685
    axis 0 0 0 xyz
  end
  begin
    id 22
    name LeftUpLeg
    direction -2.30187e-007 -1 6.00931e-010
    length 16.4045
    axis -3.48766 0.00143442 -0.000524262 xyz
    dof rx ry rz
  end
  begin
    id 23
    name LeftLeg
    direction -2.30187e-007 -1 1.6669e-009
    length 17.5097
    axis 3.68178 -0.00654042 -0.000285133 xyz
    dof rx ry rz
  end
  begin
    id 24
    name LeftFoot
    direction 8.31532e-007 -4.54478e-011 1
    length 6.49508
    axis 1.87233e-006 4.66016e-005 -8.6538e-006 xyz
    dof rx ry rz
  end
  begin
    id 25
    name LeftToes
    direction 0.00818058 -0.00485161 0.999955
    length 3.85048
    axis 1.06247e-005 4.65869e-005 -8.65513e-006 xyz
    dof rx ry rz
  end
:hierarchy
  begin
    root RightUpLegDummy SpineDummy LeftUpLegDummy
    RightUpLegDummy RightUpLeg
    RightUpLeg RightLeg
    RightLeg RightFoot
    RightFoot RightToes
    SpineDummy Spine
    Spine Spine1
    Spine1 HEadDummy LeftShoulder1Dummy RightShoulderDummy
    HEadDummy HEad
    LeftShoulder1Dummy LeftShoulder1
    LeftShoulder1 LeftArm
    LeftArm LeftForeArm
    LeftForeArm LeftHand
    RightShoulderDummy RightShoulder
    RightShoulder RightArm
    RightArm RightForeArm
    RightForeArm RightHand
    LeftUpLegDummy LeftUpLeg
    LeftUpLeg LeftLeg
    LeftLeg LeftFoot
    LeftFoot LeftToes
  end

:SAMPLES-PER-SECOND 30
:FULLY-SPECIFIED
:DEGREES
33
root  -28.5531 28.8189 47.2079 -164.687 82.9585 171.377
RightUpLeg  -49.3286 -3.07962 -1.87994
RightLeg  64.777 1.67881 2.91828
RightFoot  -27.8557 -0.426446 -1.34197
RightToes  -31.9753 -0.157757 -0.265458
Spine  17.4353 0.273981 2.02239
Spine1  27.9142 1.56023 0.881608
HEad  1.53577 4.13674 -3.33296
LeftShoulder1  0 -2.42657e-020 -4.95415e-022
LeftArm  -21.8927 -34.613 -88.3645
LeftForeArm  63.2339 -13.3296 -2.33952
LeftHand  0.536894 -12.4196 -5.3042
RightShoulder  0 2.42657e-020 1.07489e-018
RightArm  -41.0153 41.6988 84.6917
RightForeArm  17.877 21.0226 3.88111
RightHand  1.00209 19.7786 6.11535
LeftUpLeg  -57.0316 -3.40696 -1.11555
LeftLeg  84.5637 1.19718 7.37435
LeftFoot  -15.0855 -0.229138 -1.73038
LeftToes  -15.1513 9.37529e-007 1.1992e-007
34
root  -26.7758 29.938 47.2224 -177.715 82.8225 158.085
RightUpLeg  -42.3014 -0.400095 -3.50492
RightLeg  56.8382 0.119278 0.0871838
RightFoot  -26.7401 -0.0740368 0.0660549
RightToes  -29.8327 -0.142771 -0.250802
Spine  16.0282 0.77001 1.58565
Spine1  26.2694 3.50952 0.0659113
HEad  2.45235 2.26713 -1.70649
LeftShoulder1  0 -2.42657e-020 -4.95415e-022
LeftArm  -22.1311 -27.635 -89.394
LeftForeArm  59.5627 -15.9183 -2.83408
LeftHand  0.45239 -12.8486 -4.38841
RightShoulder  0 2.42657e-020 1.07489e-018
RightArm  -43.4121 34.7051 82.026
RightForeArm  9.90414 23.9572 4.4851
RightHand  1.39807 19.5355 8.48082
LeftUpLeg  -59.4359 -4.30157 -4.81756
LeftLeg  73.5625 1.8032 4.89065
LeftFoot  -14.8623 -0.112008 -0.858748
LeftToes  -15.4596 9.37529e-007 1.1992e-007
35
root  -24.8297 31.0265 47.1644 171.091 81.9347 146.876
RightUpLeg  -34.9859 2.62887 -5.04939
RightLeg  49.2779 -2.46099 -2.55368
RightFoot  -23.2777 0.217259 1.43233
RightToes  -29.7134 -0.141952 -0.249969
Spine  14.2955 0.984137 1.197
Spine1  24.0325 4.41288 -0.523853
HEad  4.32423 -0.0199023 -0.276404
LeftShoulder1  0 -2.42657e-020 -4.95415e-022
LeftArm  -23.6783 -20.5575 -89.7593
LeftForeArm  60.3936 -17.3545 -3.10757
LeftHand  0.392003 -12.2034 -4.03803
RightShoulder  0 2.42657e-020 1.07489e-018
RightArm  -44.1233 25.9497 80.6321
RightForeArm  4.42323 27.9316 5.35065
RightHand  1.98629 20.2049 11.4879
LeftUpLeg  -58.7113 -5.67956 -7.76722
LeftLeg  58.6466 3.52593 5.00299
LeftFoot  -14.0001 -0.123054 -1.00218
LeftToes  -14.0081 9.37529e-007 1.1992e-007
36
root  -22.745 31.9048 47.2187 171.228 82.0876 147.073
RightUpLeg  -29.067 4.77333 -4.14766
RightLeg  43.9334 -4.71641 -4.01065
RightFoot  -17.1843 0.220453 1.83658
RightToes  -32.8315 -0.163897 -0.271156
Spine  12.4301 1.28973 1.18164
Spine1  21.7044 4.84549 -0.0822985
HEad  5.6333 -1.53439 -0.0860687
LeftShoulder1  0 -2.42657e-020 -4.95415e-022
LeftArm  -25.2202 -13.7011 -89.5203
LeftForeArm  61.1151 -18.1203 -3.25458
LeftHand  0.233725 -12.3699 -2.52785
RightShoulder  0 2.42657e-020 1.07489e-018
RightArm  -43.1208 16.5309 80.087
RightForeArm  -1.37503 33.5599 6.69728
RightHand  2.5967 20.8978 14.387
LeftUpLeg  -56.4631 -5.56723 -8.97685
LeftLeg  43.2055 4.90745 4.03125
LeftFoot  -11.4467 -0.0899525 -0.897495
LeftToes  -17.334 9.37529e-007 1.1992e-007
37
root  -20.4447 32.437 47.3657 -179.635 82.9113 157.867
RightUpLeg  -23.278 4.13575 -1.16424
RightLeg  41.6448 -4.95468 -3.87912
RightFoot  -9.91912 0.0660406 1.13865
RightToes  -39.5416 -0.214831 -0.312518
Spine  11.3736 1.47589 1.51179
Spine1  20.7638 4.77286 1.01407
HEad  7.05103 -1.47453 -0.625404
LeftShoulder1  0 -2.42657e-020 -4.95415e-022
LeftArm  -27.4132 -7.66528 -88.649
LeftForeArm  58.327 -19.0391 -3.44094
LeftHand  0.353676 -13.0048 -3.47406
RightShoulder  0 2.42657e-020 1.07489e-018
RightArm  -42.7892 8.58366 80.1809
RightForeArm  -5.35827 39.1967 8.24221
RightHand  3.08414 21.0202 16.8879
LeftUpLeg  -52.4233 -2.96202 -10.0437
LeftLeg  32.6278 1.83123 1.00843
LeftFoot  -7.56656 0.00286534 0.0433219
LeftToes  -22.1927 9.37529e-007 1.1992e-007
